<?xml version="1.0" encoding="UTF-8" standalone="no" ?>
<!DOCTYPE svg PUBLIC "-//W3C//DTD SVG 1.1//EN" "http://www.w3.org/Graphics/SVG/1.1/DTD/svg11.dtd">
<svg xmlns="http://www.w3.org/2000/svg" xmlns:xlink="http://www.w3.org/1999/xlink" version="1.1" width="1714.54546" height="230" viewBox="0 0 1714.54546 230" xml:space="preserve">
<desc>Created with Fabric.js 4.6.0</desc>
<defs>
</defs>
<g transform="matrix(1 0 0 1 80 110)" id="5sT7OFan4ke0APgnurzG7"  >
<path style="stroke: rgb(148,67,28); stroke-width: 0; stroke-dasharray: none; stroke-linecap: butt; stroke-dashoffset: 0; stroke-linejoin: miter; stroke-miterlimit: 4; fill: rgb(0,0,0); fill-rule: nonzero; opacity: 1;" vector-effect="non-scaling-stroke"  transform=" translate(-80, -110)" d="M 0 80 C 0 35.84 35.84 0 80 0 C 123.82619 0 159.45767999999998 35.30021 159.99387000000002 79 L 160.00000000000003 79 C 160.00000000000003 79.00599 160.00000000000003 80.01198 160.00000000000003 80.01797 L 160.00000000000003 220 L 159.99883000000003 220 L 159.99883000000003 200.00116 C 159.99883000000003 210.42388 152.06484000000003 218.99349999999998 141.90692 220 L 0 220 z M 30 100 L 130 100 L 130 79.84501 L 129.99977 79.84501 C 129.9161 52.316190000000006 107.54833 30 80.00001 30 C 52.40001 30 30.000010000000003 52.4 30.000010000000003 80 C 30.000010000000003 80.05139 30.000090000000004 80.10277 30.00024 80.15413 L 30.000010000000003 80.15413 z M 20.09883 219.99884 C 8.999189999999999 219.99884 0.0011599999999987176 211.00081 0.0011599999999987176 199.90117 L 0.0011599999999987176 219.99884 z M 20 140 L 100 140 L 100 120 L 20 120 z M 20 170 L 80 170 L 80 150 L 20 150 z M 20 200 L 140 200 L 140 182 C 140 180.89543 139.10457 180 138 180 L 20 180 z" stroke-linecap="round" />
</g>
<g transform="matrix(1 0 0 1 1526.5 141.25)" style="" id="yRMPmoRQv5l6Oa8YmDCrx"  >
		<text xml:space="preserve" font-family="Open Sans" font-size="250" font-style="normal" font-weight="normal" line-height="1.16" style="stroke: rgb(247,47,58); stroke-width: 0; stroke-dasharray: none; stroke-linecap: butt; stroke-dashoffset: 0; stroke-linejoin: miter; stroke-miterlimit: 4; fill: rgb(0,0,0); fill-rule: nonzero; opacity: 1; white-space: pre;" ><tspan x="-1306.5" y="78.54" >ErrorMaster</tspan></text>
</g>
</svg>